<svg width="2732" height="2732" viewBox="0 0 2732 2732" fill="none" xmlns="http://www.w3.org/2000/svg">
<rect width="2732" height="2732" fill="#111827"/>
<g transform="translate(1110, 1110) scale(1)">
<rect width="512" height="512" rx="120" fill="#10B981"/>
<path d="M256 128C185.3 128 128 185.3 128 256C128 326.7 185.3 384 256 384C326.7 384 384 326.7 384 256C384 185.3 326.7 128 256 128ZM256 344C207.4 344 168 304.6 168 256C168 207.4 207.4 168 256 168C304.6 168 344 207.4 344 256C344 304.6 304.6 344 256 344Z" fill="white"/>
<path d="M256 192L220 236H292L256 192Z" fill="#10B981"/>
<path d="M256 320L292 276H220L256 320Z" fill="#10B981"/>
<path d="M196 256L228 232V280L196 256Z" fill="#10B981"/>
<path d="M316 256L284 280V232L316 256Z" fill="#10B981"/>
</g>
</svg>
